<?xml version="1.0" encoding="utf-8"?>
<!-- Generator: Adobe Illustrator 22.1.0, SVG Export Plug-In . SVG Version: 6.00 Build 0)  -->
<svg version="1.1" id="圖層_1" xmlns="http://www.w3.org/2000/svg" xmlns:xlink="http://www.w3.org/1999/xlink" x="0px" y="0px"
	 viewBox="0 0 72.4 101.1" style="enable-background:new 0 0 72.4 101.1;" xml:space="preserve">
<style type="text/css">
	.st0{fill:#FFFFFF;}
</style>
<g>
	<rect x="3" y="2.8" class="st0" width="15.4" height="95.9"/>
	<path class="st0" d="M54.1,2.8v3.8l0,0c6.4,0,11.5,5.2,11.5,11.5h3.8V2.8H54.1z"/>
	<path class="st0" d="M65.7,83.4c0,6.4-5.2,11.5-11.5,11.5l0,0v3.8h15.3V83.4H65.7L65.7,83.4z"/>
	<path class="st0" d="M54.1,37.6h-3.8l0,0c0,6.4-5.2,11.5-11.5,11.5l0,0V53l0,0l0,0c6.4,0,11.5,5.2,11.5,11.5h3.8V37.6z"/>
</g>
</svg>
